<svg version="1.1" id="Layer_1" xmlns="http://www.w3.org/2000/svg" xmlns:xlink="http://www.w3.org/1999/xlink" x="0px" y="0px"
	 width="100%" viewBox="0 0 500 500" enable-background="new 0 0 500 500" xml:space="preserve">
<path fill="#FFFFFF" opacity="1.000000" stroke="none" 
	d="
M460.000000,501.000000 
	C306.666718,501.000000 153.833405,501.000000 1.000082,501.000000 
	C1.000055,334.333405 1.000055,167.666824 1.000027,1.000171 
	C167.666550,1.000114 334.333099,1.000114 500.999756,1.000057 
	C500.999817,167.666519 500.999817,334.333038 500.999908,500.999756 
	C487.500000,501.000000 474.000000,501.000000 460.000000,501.000000 
M381.841248,274.468201 
	C381.940369,268.306946 381.658661,262.108887 382.249634,255.995163 
	C382.800995,250.291534 386.899994,247.397171 392.301025,247.949036 
	C397.896484,248.520752 397.951843,252.680191 397.960144,256.815430 
	C397.978851,266.098297 397.966034,275.381256 397.966034,284.808044 
	C401.985565,284.808044 405.567932,284.808044 409.081879,284.808044 
	C409.081879,272.815247 409.441040,261.016754 408.941345,249.254730 
	C408.661072,242.656845 404.082489,238.879898 397.498718,238.136169 
	C390.459534,237.340973 384.843079,239.743362 380.878906,246.529892 
	C378.027252,240.573914 373.725006,238.113541 367.881317,237.991089 
	C362.103638,237.870010 357.532257,240.100800 353.922485,245.901505 
	C353.586761,242.661835 353.404144,240.899582 353.230255,239.221375 
	C349.501648,239.221375 346.080597,239.221375 342.598724,239.221375 
	C342.598724,254.591751 342.598724,269.668488 342.598724,284.778076 
	C346.483368,284.778076 350.077026,284.778076 354.000366,284.778076 
	C354.000366,276.580750 353.897034,268.615448 354.059113,260.655548 
	C354.112396,258.038025 354.410370,255.255875 355.375946,252.863586 
	C357.128052,248.522324 360.955170,247.367950 365.292419,248.065140 
	C369.577026,248.753845 370.099701,252.077820 370.101776,255.620071 
	C370.104218,259.785797 370.108490,263.951508 370.109497,268.117249 
	C370.110840,273.709381 370.109833,279.301483 370.109833,284.695618 
	C374.405029,284.695618 377.997681,284.695618 381.841248,284.695618 
	C381.841248,281.402679 381.841248,278.427948 381.841248,274.468201 
M98.009117,276.401764 
	C103.472267,284.643890 111.672112,286.474792 120.728249,285.722656 
	C127.738815,285.140320 133.201004,281.893433 136.404510,274.926270 
	C133.665665,273.172729 131.177353,271.579559 128.468735,269.845337 
	C124.644089,275.767944 119.310219,277.371216 112.897957,275.169800 
	C108.154877,273.541443 106.673538,269.695862 106.463547,264.471130 
	C116.605331,264.471130 126.515343,264.471130 136.740097,264.471130 
	C137.275131,255.450394 137.407578,247.079987 129.506943,241.472763 
	C117.413383,232.889694 98.895683,239.648895 95.366173,253.966339 
	C93.537201,261.385620 93.857475,268.815338 98.009117,276.401764 
M298.679718,260.097870 
	C292.461121,262.801758 290.168274,267.649384 290.941498,274.200012 
	C291.564850,279.480988 294.181427,283.349060 299.316772,284.917145 
	C306.835449,287.212982 313.472931,286.003174 318.086487,278.846985 
	C322.727509,285.574066 327.584259,286.952118 334.945068,283.621765 
	C334.652618,281.254456 334.348969,278.796417 334.004211,276.005554 
	C328.931671,276.982117 328.686676,273.870087 328.792114,270.105865 
	C328.955292,264.281525 328.936554,258.445953 328.784332,252.620651 
	C328.647125,247.370590 326.994385,242.762817 322.013153,240.100998 
	C313.050568,235.311661 298.442780,238.515976 292.061218,246.667145 
	C293.592834,248.955154 295.136017,251.260452 296.078888,252.668976 
	C301.332184,250.712646 305.774933,248.588181 310.458374,247.492538 
	C313.210876,246.848618 316.814209,247.292038 317.316071,251.413879 
	C317.778137,255.208664 314.734100,256.073425 311.984619,256.818604 
	C307.823059,257.946503 303.604706,258.864807 298.679718,260.097870 
M187.890762,248.791595 
	C186.529404,243.843552 183.963974,240.074493 178.613922,238.733749 
	C170.642609,236.736115 163.990952,238.692062 158.528870,246.085236 
	C158.289673,243.097839 158.133957,241.153107 157.972778,239.140137 
	C154.389511,239.140137 150.953720,239.140137 147.079773,239.140137 
	C147.079773,240.297287 147.079773,241.250458 147.079773,242.203644 
	C147.079773,256.316650 147.079773,270.429688 147.079773,284.676910 
	C151.165787,284.676910 154.861481,284.676910 158.931229,284.676910 
	C158.931229,275.707184 158.716400,267.064667 158.998566,258.438385 
	C159.228104,251.421570 163.253281,247.737701 169.644653,247.918152 
	C175.251617,248.076431 176.962357,250.519028 176.978592,258.489105 
	C176.996445,267.253357 176.982651,276.017639 176.982651,284.734650 
	C181.104401,284.734650 184.676407,284.734650 188.001373,284.734650 
	C188.001373,272.837219 188.001373,261.221649 187.890762,248.791595 
M250.045670,220.660049 
	C249.929230,219.066010 249.812790,217.471954 249.696701,215.882874 
	C245.895386,215.882874 242.545410,215.882874 239.214203,215.882874 
	C238.511719,232.689728 233.773392,240.204605 223.595383,241.073441 
	C212.879257,241.988235 206.828629,236.372452 203.435272,222.309433 
	C200.034714,222.309433 196.624359,222.309433 192.289246,222.309433 
	C193.561539,227.098694 194.124084,231.633881 195.937836,235.596359 
	C201.677628,248.135986 214.803223,254.300446 227.636658,251.622284 
	C239.687103,249.107559 251.725540,236.395737 250.045670,220.660049 
M245.747986,263.774567 
	C235.526550,252.611633 220.141052,250.263733 208.332062,258.064728 
	C198.058197,264.851624 192.506989,278.349365 196.579681,287.414795 
	C199.645630,286.763336 202.792770,286.094604 205.785690,285.458618 
	C206.762695,273.249817 211.599258,266.679474 220.481079,265.014038 
	C229.436890,263.334747 236.029099,267.294464 240.944824,277.532379 
	C244.190079,276.841125 247.515274,276.132843 252.113876,275.153320 
	C249.896439,271.105072 248.044037,267.723236 245.747986,263.774567 
M257.713989,252.513748 
	C257.713989,263.270264 257.713989,274.026794 257.713989,284.701477 
	C261.817322,284.701477 265.398407,284.701477 269.146301,284.701477 
	C269.146301,282.419922 269.093262,280.436462 269.155823,278.456665 
	C269.381104,271.325195 269.195709,264.141602 270.033020,257.080597 
	C270.740448,251.114685 275.310211,248.370605 281.221863,249.221939 
	C282.306396,249.378128 283.374084,249.651169 284.759705,249.933472 
	C285.394073,246.260468 285.967072,242.942551 286.551544,239.558502 
	C278.953156,237.357925 273.151245,238.693497 268.809998,245.160492 
	C268.809998,243.217026 268.809998,241.273560 268.809998,239.262558 
	C265.011414,239.262558 261.475342,239.262558 258.006439,239.262558 
	C257.872284,239.901260 257.747955,240.222168 257.746063,240.543808 
	C257.724579,244.202698 257.721802,247.861694 257.713989,252.513748 
M232.533600,224.546219 
	C233.618973,217.561050 231.957947,213.168442 227.353989,210.848511 
	C223.295151,208.803268 216.864319,209.693329 213.886719,212.650253 
	C210.239807,216.271881 210.023529,220.744247 211.474152,225.125107 
	C212.817261,229.181335 216.193954,231.518112 220.517685,231.928787 
	C225.889954,232.439056 229.816269,230.145172 232.533600,224.546219 
z"/>
<path fill="#090909" opacity="1.000000" stroke="none" 
	d="
M381.841248,274.960693 
	C381.841248,278.427948 381.841248,281.402679 381.841248,284.695618 
	C377.997681,284.695618 374.405029,284.695618 370.109833,284.695618 
	C370.109833,279.301483 370.110840,273.709381 370.109497,268.117249 
	C370.108490,263.951508 370.104218,259.785797 370.101776,255.620071 
	C370.099701,252.077820 369.577026,248.753845 365.292419,248.065140 
	C360.955170,247.367950 357.128052,248.522324 355.375946,252.863586 
	C354.410370,255.255875 354.112396,258.038025 354.059113,260.655548 
	C353.897034,268.615448 354.000366,276.580750 354.000366,284.778076 
	C350.077026,284.778076 346.483368,284.778076 342.598724,284.778076 
	C342.598724,269.668488 342.598724,254.591751 342.598724,239.221375 
	C346.080597,239.221375 349.501648,239.221375 353.230255,239.221375 
	C353.404144,240.899582 353.586761,242.661835 353.922485,245.901505 
	C357.532257,240.100800 362.103638,237.870010 367.881317,237.991089 
	C373.725006,238.113541 378.027252,240.573914 380.878906,246.529892 
	C384.843079,239.743362 390.459534,237.340973 397.498718,238.136169 
	C404.082489,238.879898 408.661072,242.656845 408.941345,249.254730 
	C409.441040,261.016754 409.081879,272.815247 409.081879,284.808044 
	C405.567932,284.808044 401.985565,284.808044 397.966034,284.808044 
	C397.966034,275.381256 397.978851,266.098297 397.960144,256.815430 
	C397.951843,252.680191 397.896484,248.520752 392.301025,247.949036 
	C386.899994,247.397171 382.800995,250.291534 382.249634,255.995163 
	C381.658661,262.108887 381.940369,268.306946 381.841248,274.960693 
z"/>
<path fill="#090909" opacity="1.000000" stroke="none" 
	d="
M97.826721,276.082642 
	C93.857475,268.815338 93.537201,261.385620 95.366173,253.966339 
	C98.895683,239.648895 117.413383,232.889694 129.506943,241.472763 
	C137.407578,247.079987 137.275131,255.450394 136.740097,264.471130 
	C126.515343,264.471130 116.605331,264.471130 106.463547,264.471130 
	C106.673538,269.695862 108.154877,273.541443 112.897957,275.169800 
	C119.310219,277.371216 124.644089,275.767944 128.468735,269.845337 
	C131.177353,271.579559 133.665665,273.172729 136.404510,274.926270 
	C133.201004,281.893433 127.738815,285.140320 120.728249,285.722656 
	C111.672112,286.474792 103.472267,284.643890 97.826721,276.082642 
M117.354614,247.055588 
	C110.166115,247.592987 107.365845,250.269440 107.151352,257.042694 
	C110.283028,257.042694 113.408852,257.042694 116.534668,257.042694 
	C119.592873,257.042694 122.651085,257.042694 125.807961,257.042694 
	C125.468369,251.468124 123.624428,247.821472 117.354614,247.055588 
z"/>
<path fill="#070707" opacity="1.000000" stroke="none" 
	d="
M299.045105,259.984985 
	C303.604706,258.864807 307.823059,257.946503 311.984619,256.818604 
	C314.734100,256.073425 317.778137,255.208664 317.316071,251.413879 
	C316.814209,247.292038 313.210876,246.848618 310.458374,247.492538 
	C305.774933,248.588181 301.332184,250.712646 296.078888,252.668976 
	C295.136017,251.260452 293.592834,248.955154 292.061218,246.667145 
	C298.442780,238.515976 313.050568,235.311661 322.013153,240.100998 
	C326.994385,242.762817 328.647125,247.370590 328.784332,252.620651 
	C328.936554,258.445953 328.955292,264.281525 328.792114,270.105865 
	C328.686676,273.870087 328.931671,276.982117 334.004211,276.005554 
	C334.348969,278.796417 334.652618,281.254456 334.945068,283.621765 
	C327.584259,286.952118 322.727509,285.574066 318.086487,278.846985 
	C313.472931,286.003174 306.835449,287.212982 299.316772,284.917145 
	C294.181427,283.349060 291.564850,279.480988 290.941498,274.200012 
	C290.168274,267.649384 292.461121,262.801758 299.045105,259.984985 
M317.742371,268.121765 
	C317.742371,266.247375 317.742371,264.373016 317.742371,262.311523 
	C315.335724,263.052399 313.627350,263.631226 311.889008,264.098602 
	C310.130676,264.571411 308.300751,264.806244 306.576569,265.371979 
	C303.272430,266.456024 301.764862,268.884033 302.316101,272.286652 
	C302.841248,275.528412 305.009949,277.019043 308.271606,277.157928 
	C313.405823,277.376465 315.959351,275.183960 317.742371,268.121765 
z"/>
<path fill="#070707" opacity="1.000000" stroke="none" 
	d="
M187.946075,249.198853 
	C188.001373,261.221649 188.001373,272.837219 188.001373,284.734650 
	C184.676407,284.734650 181.104401,284.734650 176.982651,284.734650 
	C176.982651,276.017639 176.996445,267.253357 176.978592,258.489105 
	C176.962357,250.519028 175.251617,248.076431 169.644653,247.918152 
	C163.253281,247.737701 159.228104,251.421570 158.998566,258.438385 
	C158.716400,267.064667 158.931229,275.707184 158.931229,284.676910 
	C154.861481,284.676910 151.165787,284.676910 147.079773,284.676910 
	C147.079773,270.429688 147.079773,256.316650 147.079773,242.203644 
	C147.079773,241.250458 147.079773,240.297287 147.079773,239.140137 
	C150.953720,239.140137 154.389511,239.140137 157.972778,239.140137 
	C158.133957,241.153107 158.289673,243.097839 158.528870,246.085236 
	C163.990952,238.692062 170.642609,236.736115 178.613922,238.733749 
	C183.963974,240.074493 186.529404,243.843552 187.946075,249.198853 
z"/>
<path fill="#FB6B52" opacity="1.000000" stroke="none" 
	d="
M250.060699,221.125275 
	C251.725540,236.395737 239.687103,249.107559 227.636658,251.622284 
	C214.803223,254.300446 201.677628,248.135986 195.937836,235.596359 
	C194.124084,231.633881 193.561539,227.098694 192.289246,222.309433 
	C196.624359,222.309433 200.034714,222.309433 203.435272,222.309433 
	C206.828629,236.372452 212.879257,241.988235 223.595383,241.073441 
	C233.773392,240.204605 238.511719,232.689728 239.214203,215.882874 
	C242.545410,215.882874 245.895386,215.882874 249.696701,215.882874 
	C249.812790,217.471954 249.929230,219.066010 250.060699,221.125275 
z"/>
<path fill="#FB6B52" opacity="1.000000" stroke="none" 
	d="
M245.969803,264.057983 
	C248.044037,267.723236 249.896439,271.105072 252.113876,275.153320 
	C247.515274,276.132843 244.190079,276.841125 240.944824,277.532379 
	C236.029099,267.294464 229.436890,263.334747 220.481079,265.014038 
	C211.599258,266.679474 206.762695,273.249817 205.785690,285.458618 
	C202.792770,286.094604 199.645630,286.763336 196.579681,287.414795 
	C192.506989,278.349365 198.058197,264.851624 208.332062,258.064728 
	C220.141052,250.263733 235.526550,252.611633 245.969803,264.057983 
z"/>
<path fill="#020202" opacity="1.000000" stroke="none" 
	d="
M257.713989,252.017212 
	C257.721802,247.861694 257.724579,244.202698 257.746063,240.543808 
	C257.747955,240.222168 257.872284,239.901260 258.006439,239.262558 
	C261.475342,239.262558 265.011414,239.262558 268.809998,239.262558 
	C268.809998,241.273560 268.809998,243.217026 268.809998,245.160492 
	C273.151245,238.693497 278.953156,237.357925 286.551544,239.558502 
	C285.967072,242.942551 285.394073,246.260468 284.759705,249.933472 
	C283.374084,249.651169 282.306396,249.378128 281.221863,249.221939 
	C275.310211,248.370605 270.740448,251.114685 270.033020,257.080597 
	C269.195709,264.141602 269.381104,271.325195 269.155823,278.456665 
	C269.093262,280.436462 269.146301,282.419922 269.146301,284.701477 
	C265.398407,284.701477 261.817322,284.701477 257.713989,284.701477 
	C257.713989,274.026794 257.713989,263.270264 257.713989,252.017212 
z"/>
<path fill="#FB6B52" opacity="1.000000" stroke="none" 
	d="
M232.362366,224.906693 
	C229.816269,230.145172 225.889954,232.439056 220.517685,231.928787 
	C216.193954,231.518112 212.817261,229.181335 211.474152,225.125107 
	C210.023529,220.744247 210.239807,216.271881 213.886719,212.650253 
	C216.864319,209.693329 223.295151,208.803268 227.353989,210.848511 
	C231.957947,213.168442 233.618973,217.561050 232.362366,224.906693 
z"/>
<path fill="#FFFFFF" opacity="1.000000" stroke="none" 
	d="
M117.755981,247.074829 
	C123.624428,247.821472 125.468369,251.468124 125.807961,257.042694 
	C122.651085,257.042694 119.592873,257.042694 116.534668,257.042694 
	C113.408852,257.042694 110.283028,257.042694 107.151352,257.042694 
	C107.365845,250.269440 110.166115,247.592987 117.755981,247.074829 
z"/>
<path fill="#F2F2F2" opacity="1.000000" stroke="none" 
	d="
M317.695587,268.524170 
	C315.959351,275.183960 313.405823,277.376465 308.271606,277.157928 
	C305.009949,277.019043 302.841248,275.528412 302.316101,272.286652 
	C301.764862,268.884033 303.272430,266.456024 306.576569,265.371979 
	C308.300751,264.806244 310.130676,264.571411 311.889008,264.098602 
	C313.627350,263.631226 315.335724,263.052399 317.742371,262.311523 
	C317.742371,264.373016 317.742371,266.247375 317.695587,268.524170 
z"/>
</svg>